# xmcd CD database file
#
# Track frame offsets:
#	150
#	18260
#	37784
#	60562
#	82840
#	106903
#	118424
#	139780
#	160693
#	182182
#	206673
#	224634
#	243289
#	264139
#
# Disc length: 3836 seconds
#
# Revision: 1
# Processed by: cddbd v1.5.1PL0 Copyright (c) Steve Scherf et al.
# Submitted via: jetAudio 5
#
DISCID=b80efa0e
DTITLE=Crossroadz - 15:0 The Best of
DYEAR=1900
DGENRE=
TTITLE0=Blues lives in Russia
TTITLE1=В одиночестве есть кайф
TTITLE2=Rock'n'Roll's my prayer
TTITLE3=Diamond rain
TTITLE4=Hang on thru the night
TTITLE5=Вторник
TTITLE6=Can't get away
TTITLE7=By my hand
TTITLE8=Southern woman
TTITLE9=ВИО (VIO)
TTITLE10=Poor man's blues
TTITLE11=The song
TTITLE12=Berlin blues
TTITLE13=Сколько можно терпеть
EXTD=
EXTT0=
EXTT1=
EXTT2=
EXTT3=
EXTT4=
EXTT5=
EXTT6=
EXTT7=
EXTT8=
EXTT9=
EXTT10=
EXTT11=
EXTT12=
EXTT13=
PLAYORDER=
